<?xml version="1.0" encoding="UTF-8"?>
<svg xmlns="http://www.w3.org/2000/svg" width="512" height="512" viewBox="0 0 512 512">
  <!-- Refined shield + lock: keyhole moved up -->
  <g fill="none" stroke="#FFFFFF" stroke-width="18" stroke-linecap="round" stroke-linejoin="round">

    <!-- Shield outline -->
    <path d="
      M256 56
      C196 100 128 112 112 120
      V272
      C112 380 198 448 256 480
      C314 448 400 380 400 272
      V120
      C384 112 316 100 256 56
      Z
    "/>

    <!-- Lock body -->
    <rect x="188" y="220" width="136" height="140" rx="22" ry="22"/>

    <!-- Shackle -->
    <path d="
      M208 220
      V188
      C208 148 238 120 256 120
      C274 120 304 148 304 188
      V220
    "/>

    <!-- Keyhole (moved up for clearance) -->
    <path d="
      M256 268
      C242 268 232 279 232 292
      C232 304 238 313 248 318
      V342
      H264
      V318
      C274 313 280 304 280 292
      C280 279 270 268 256 268
      Z
    "/>

  </g>
</svg>
