<!DOCTYPE svg PUBLIC "-//W3C//DTD SVG 1.1//EN" "http://www.w3.org/Graphics/SVG/1.1/DTD/svg11.dtd">
<!-- Uploaded to: SVG Repo, www.svgrepo.com, Transformed by: SVG Repo Mixer Tools -->
<svg width="256px" height="256px" viewBox="-51.2 -51.2 614.40 614.40" version="1.1" xml:space="preserve" xmlns="http://www.w3.org/2000/svg" xmlns:xlink="http://www.w3.org/1999/xlink" fill="#ffffff" stroke="#ffffff" stroke-width="0.00512" transform="matrix(1, 0, 0, 1, 0, 0)">
<g id="SVGRepo_bgCarrier" stroke-width="0"/>
<g id="SVGRepo_tracerCarrier" stroke-linecap="round" stroke-linejoin="round" stroke="#CCCCCC" stroke-width="3.072"/>
<g id="SVGRepo_iconCarrier"> <style type="text/css"> .st0{fill:#ffffff;} </style> <g id="Layer_1"/> <g id="Layer_2"> <g> <path class="st0" d="M473.07,192.42L263.54,80.5c-4.71-2.52-10.37-2.52-15.08,0L38.93,192.42c-5.33,2.85-8.6,8.45-8.46,14.49 c0.14,6.04,3.67,11.48,9.12,14.08l47.76,22.72v137.35c0,18.64,18.65,32.13,57,41.26c30,7.14,69.65,11.08,111.64,11.08 s81.63-3.93,111.64-11.08c38.36-9.13,57-22.63,57-41.26V243.7l19.08-9.08v61.93c0,8.84,7.16,16,16,16s16-7.16,16-16v-77.7 c3.52-2.92,5.69-7.25,5.8-11.95C481.67,200.87,478.39,195.26,473.07,192.42z M392.64,378.71c-3.27,2.83-14.68,9.05-41.26,14.4 c-26.47,5.33-60.35,8.27-95.38,8.27s-68.91-2.94-95.38-8.27c-26.57-5.35-37.99-11.58-41.26-14.4V258.92l129.77,61.74 c2.17,1.03,4.52,1.55,6.87,1.55s4.7-0.52,6.87-1.55l129.77-61.74V378.71z M401.86,219.1c-0.03,0.01-0.06,0.02-0.09,0.04 L256,288.49l-145.77-69.35c-0.03-0.01-0.06-0.02-0.09-0.04l-28.16-13.4L256,112.75l174.02,92.95L401.86,219.1z"/> </g> </g> </g>
</svg>